<svg width="594" height="383" viewBox="0 0 594 383" fill="none" xmlns="http://www.w3.org/2000/svg">
<path d="M466.784 126.275C467.527 126.543 471.567 127.909 476.38 127.909C479.975 127.909 484.016 127.107 487.373 124.463C492.245 120.63 494.265 114.243 493.344 105.449C493.047 102.656 490.581 100.636 487.789 100.933C484.996 101.23 482.976 103.696 483.273 106.489C483.629 109.995 483.57 114.57 481.134 116.471C478.192 118.789 472.102 117.392 470.201 116.739C467.586 115.788 464.675 117.155 463.724 119.799C462.773 122.443 464.14 125.325 466.784 126.275Z" fill="#FCF7C3"/>
<path d="M447.681 122.591C444.888 122.889 442.868 125.384 443.165 128.147C443.521 131.653 443.462 136.228 441.026 138.129C438.085 140.447 431.994 139.08 430.093 138.397C427.478 137.446 424.567 138.813 423.616 141.457C422.665 144.101 424.032 146.983 426.676 147.934C427.419 148.201 431.459 149.568 436.272 149.568C439.867 149.568 443.908 148.765 447.265 146.121C452.137 142.289 454.157 135.901 453.236 127.107C452.939 124.315 450.503 122.294 447.681 122.591Z" fill="#FCF7C3"/>
<path d="M486.451 134.386C484.312 135.04 483.124 137.327 483.777 139.466C486.006 146.656 485.768 151.915 483.124 155.123C479.648 159.312 472.161 159.639 468.952 159.372C467.021 155.628 463.575 153.192 463.07 152.865C461.674 151.915 459.772 152.301 458.851 153.697C457.93 155.094 458.287 156.995 459.683 157.916C460.664 158.57 463.129 160.679 463.902 162.967C464.05 163.382 464.14 163.828 464.169 164.274C464.169 164.393 464.11 164.541 464.11 164.66C463.961 166.145 462.862 167.661 460.723 169.176C459.356 170.156 459.03 172.058 460.01 173.424C460.604 174.256 461.555 174.702 462.506 174.702C463.129 174.702 463.724 174.523 464.258 174.137C467.051 172.147 468.863 169.919 469.695 167.512C470.022 167.512 470.378 167.512 470.765 167.512C475.489 167.512 484.134 166.532 489.363 160.322C493.908 154.886 494.651 147.072 491.561 137.06C490.908 134.921 488.62 133.733 486.481 134.386" fill="#FCF7C3"/>
<path d="M505.704 207.174C502.049 207.679 498.336 207.946 494.652 207.946C452.375 208.095 414.377 175.623 408.138 134.059C406.771 124.909 406.831 115.788 408.227 106.964L489.453 90.208C493.226 101.23 500.831 110.945 511.378 117.125C519.013 121.611 527.689 123.958 536.483 123.928C549.466 123.898 561.854 118.788 571.391 109.579C572.045 108.955 572.639 108.301 573.263 107.647C573.708 107.172 574.124 106.697 574.6 106.251C575.729 105.152 576.561 105.003 577.095 105.003C577.511 105.003 577.987 105.092 578.492 105.271C580.482 105.954 580.958 106.964 581.106 108.36C581.403 111.272 581.581 114.302 581.7 116.501C581.73 117.244 581.789 117.897 581.819 118.432C581.7 163.858 549.733 201.173 505.733 207.204M413.337 88.3066C413.337 88.3066 413.634 88.3363 413.783 88.3363C414.02 88.3363 414.288 88.3363 414.525 88.2769L486.749 74.5214C486.779 77.1656 487.016 79.7503 487.432 82.335L410.039 98.289C410.931 94.9021 412.03 91.5746 413.337 88.3066ZM423.082 70.3027L489.69 57.1414C489.185 58.5378 488.71 59.9638 488.324 61.3899C487.908 62.9645 487.611 64.5391 487.343 66.1137L417.407 79.4235C419.101 76.2743 421.002 73.2142 423.082 70.273M438.501 53.5169L497.266 43.3563C496.078 44.9012 495.008 46.4758 494.057 48.0801C493.85 48.0801 493.671 48.0801 493.463 48.1395L431.163 60.4392C433.48 57.9733 435.946 55.656 438.531 53.5169M483.006 33.9087C486.422 33.4333 489.987 33.3442 493.731 33.2254C494.83 33.1957 495.929 33.166 497.028 33.1362H497.355C499.405 33.1362 500.237 33.7899 500.742 34.5326L455.703 42.3164C464.17 38.1274 473.35 35.2456 483.035 33.9087M505.971 21.4902C508.377 19.767 509.774 16.9743 509.714 14.0034V12.2505L511.081 13.2903C513.458 15.0135 516.577 15.5185 519.34 14.5381L521.004 13.9737L520.469 15.6374C519.548 18.4301 520.053 21.5198 521.836 23.8669L522.905 25.2632H521.063C518.122 25.2632 515.389 26.6893 513.725 29.0958L512.715 30.5218L512.18 28.8581C511.289 26.0357 509.061 23.8372 506.209 22.9756L504.545 22.4706L505.971 21.4604V21.4902ZM594 117.778C593.97 117.214 593.911 116.531 593.881 115.758C593.733 113.441 593.554 110.262 593.227 107.024C592.544 100.606 588.593 95.734 582.354 93.6246C576.471 91.6341 570.529 93.0304 566.014 97.4274C565.419 98.0216 564.825 98.6158 564.261 99.2397C563.815 99.7447 563.34 100.22 562.864 100.695C555.586 107.707 546.197 111.599 536.393 111.628C529.798 111.628 523.262 109.876 517.528 106.518C503.03 98.0216 495.87 80.7307 500.148 64.4797C501.693 58.5972 504.693 53.1307 509.298 47.8127C509.714 47.3373 510.071 46.8025 510.427 46.2975C513.369 43.0889 516.34 39.8506 519.281 36.6122C520.737 35.0376 521.212 34.8297 523.262 34.8297C524.302 34.8297 525.342 34.8297 526.381 34.8297C529.382 34.8297 532.026 33.1362 533.363 30.4624C534.7 27.7885 534.403 24.6393 532.591 22.2626L529.56 18.2815L531.135 13.528C531.937 11.0918 531.551 8.53685 530.036 6.4869C528.045 3.75364 524.361 2.56526 521.123 3.69421L516.399 5.32824L512.358 2.3573C509.298 0.0993837 504.753 0.515295 502.109 3.21885C500.653 4.73403 499.851 6.72456 499.91 8.83393L499.999 13.8251L495.929 16.7366C494.473 17.7765 493.463 19.2619 492.988 20.8959C489.155 21.0148 485.204 21.1336 481.223 21.6684C454.395 25.3821 430.776 39.2861 414.674 60.766C398.571 82.2756 391.917 108.895 395.957 135.723C403.176 183.941 445.601 220.187 494.592 220.008C498.811 220.008 503.089 219.682 507.278 219.117C557.457 212.254 593.911 169.74 593.94 118.046V117.63L594 117.778Z" fill="#FCF7C3"/>
<path d="M4.23806 64.7471C5.78295 63.7072 7.89231 63.1725 9.85314 62.9942C14.3393 62.608 19.1225 64.0043 21.8855 66.6485C22.6579 67.3021 24.4107 70.778 25.4209 74.2838C27.352 79.8988 31.0657 108.776 32.67 127.761C33.0265 131.89 33.3236 135.455 33.383 138.337L34.3634 149.805C34.3634 149.805 35.938 147.161 36.3539 143.507C40.6321 127.998 47.6435 119.472 57.507 118.61C58.3983 118.551 59.4678 118.432 60.5671 118.521C71.1139 119.412 73.9363 127.107 77.9471 166.086L78.7789 175.741C80.2941 193.656 80.0267 194.755 73.5798 195.29L67.6676 195.795C61.7555 196.3 59.349 195.587 58.22 182.188C57.8635 178.059 57.7447 172.503 57.507 165.313C57.3288 154.677 56.9128 147.874 56.5563 143.566C56.0216 137.119 55.3977 136.466 55.2194 136.466H55.0411C55.0411 136.317 54.8332 136.317 54.6549 136.347C53.4071 136.466 49.2775 145.289 45.4747 157.678C44.0487 162.134 41.5828 171.166 40.1567 175.623C36.6213 184.773 32.5808 190.329 27.4411 191.487C26.1933 191.784 24.797 192.082 23.3412 192.2C19.2116 192.557 15.0226 191.992 13.1212 190.893C9.1104 188.16 8.04086 186.466 5.84237 160.5C4.95109 149.924 3.88154 135.247 2.30694 114.807C-1.19877 65.163 -0.81253 67.6586 4.17865 64.6876" fill="#DEF1F1"/>
<path d="M131.424 104.261C134.662 103.369 136.831 102.835 138.792 102.835C140.961 102.835 142.743 103.369 144.912 104.261C146.903 104.617 147.794 105.33 147.794 106.073C147.794 107.143 146.19 108.242 143.13 108.777C134.157 109.668 127.146 115.966 119.065 131.95C110.627 147.934 108.459 158.54 108.459 164.125C108.459 167.185 108.993 168.79 109.706 168.79C109.825 168.79 109.944 168.73 110.063 168.611C127.324 152.984 127.859 139.14 129.641 132.841C134.128 120.274 134.128 119.531 137.722 116.857C139.683 114.867 142.565 113.976 145.447 113.976C147.972 113.976 150.468 114.689 152.102 115.966C154.271 117.214 154.805 120.274 154.805 124.76C154.805 129.246 154.271 135.366 154.271 142.734C154.271 154.41 154.805 172.206 155.697 181.178C155.697 181.713 155.875 182.426 155.875 182.961C155.875 188.546 151.567 189.972 145.803 189.972C144.377 190.151 142.922 190.151 141.674 190.151C133.949 190.151 130.354 187.804 130.354 182.07C130.354 181.535 130.533 181 130.533 180.287C130.533 178.118 130.533 177.049 129.82 177.049C129.107 177.049 127.473 178.297 124.264 181.178C118.322 186.378 114.935 188.368 108.28 188.368C106.854 188.368 105.399 188.368 103.794 188.19C88.1671 184.951 85.8201 177.405 85.8201 170.216C85.8201 169.146 85.9983 167.869 85.9983 166.799C87.7809 140.922 104.686 122.235 110.063 117.749C114.549 113.263 126.047 106.073 131.454 104.261" fill="#DEF1F1"/>
<path d="M277.386 134.089C277.059 129.068 275.396 125.384 274.772 124.344C274.148 122.769 273.91 122.056 273.019 122.116C272.128 122.175 270.583 123.364 266.958 126.097C261.7 130.94 261.7 131.118 262.056 136.673C261.759 137.773 261.7 139.407 261.789 141.011C261.997 144.249 262.799 148.141 262.977 151.201C264.106 157.619 264.433 159.936 265.146 159.877C265.502 159.877 266.008 159.104 266.81 157.797C275.99 149.3 277.772 140.536 277.356 134.089M242.062 108.45C243.25 107.113 246.072 106.4 248.776 106.221C251.658 106.043 254.361 106.4 255.698 107.588C258.937 110.44 259.828 118.67 259.828 118.67C259.828 118.67 261.967 118.521 264.255 117.303C266.691 116.055 270.434 115.283 274.178 115.045C278.664 114.748 283.566 115.342 286.715 116.946C291.736 119.323 294.677 123.275 295.063 129.187C295.45 135.277 293.102 143.358 288.022 154.143C285.051 161.184 274.475 173.008 269.068 175.712C266.067 176.633 265.176 176.87 265.443 181C265.592 183.139 265.948 186.021 266.602 190.477C267.107 198.38 269.038 208.689 270.404 213.086C271.623 218.048 272.336 220.692 272.454 222.504C272.633 225.029 271.533 225.089 268.949 226.693C266.334 227.941 263.304 228.683 260.274 228.862C254.183 229.248 248.122 227.673 247.231 224.673C244.141 215.701 242.032 199.984 240.606 177.91C240.071 169.829 239.536 161.243 239.269 151.706C239.596 120.185 239.952 112.044 242.062 108.479M214.491 131.148C214.61 129.721 214.551 128.266 214.491 126.988C214.878 122.502 214.075 119.383 212.263 119.234C210.302 119.056 207.361 121.878 203.053 129.811C198.983 137.386 197.973 145.081 197.498 150.607C197.171 154.529 197.022 156.163 197.379 156.193C197.735 156.222 198.359 155.39 199.548 154.024C210.451 146.834 213.897 137.951 214.491 131.148ZM186.446 94.0999C189.862 94.397 193.249 94.6941 196.547 96.0607C198.775 97.3382 200.35 104.32 199.963 108.806C199.696 112.044 199.934 113.5 200.825 113.56C201.538 113.619 202.697 112.817 204.242 111.51C208.46 108.45 213.452 107.053 218.116 107.469C224.028 107.974 229.495 111.331 232.079 117.154C233.476 119.799 234.397 121.67 234.1 125.265C233.951 126.869 233.624 128.652 233.089 130.761C232.495 137.565 231.247 139.793 228.336 146.418C220.374 159.253 205.014 170.394 197.022 170.78C194.883 170.602 193.992 170.512 193.457 176.603C193.19 179.812 193.101 185.04 192.774 193.121L192.061 201.351C190.754 216.562 190.546 217.097 188.407 218.879C186.713 219.83 182.524 220.187 178.394 219.83C174.265 219.474 170.224 218.404 167.996 217.127C164.431 214.482 163.332 206.283 164.996 186.942C165.768 177.999 167.075 166.739 169.006 152.657C175.394 105.597 178.394 95.7636 186.475 94.0999" fill="#DEF1F1"/>
<path d="M345.065 102.626C346.847 101.913 348.66 101.557 350.442 101.557C355.463 101.557 359.979 104.26 360.87 109.103C363.574 116.115 365 131.742 365 148.825C365 163.739 363.93 179.722 362.118 191.963C358.167 207.768 356.384 215.671 352.403 220.9C347.026 227.198 336.419 231.684 327.952 231.684C324.179 231.684 320.763 230.793 318.237 228.802C317.168 227.733 316.455 227.02 316.455 226.455C316.455 225.564 317.702 224.673 320.763 222.326C323.466 219.622 326.14 215.671 327.417 214.423C330.121 207.768 337.132 186.407 337.132 159.074V151.35C336.954 151.35 336.241 153.697 334.072 154.41C331.547 155.658 327.774 156.4 324.357 156.4C320.941 156.4 317.524 155.687 315.563 154.41C303.709 150.637 303.175 129.068 303.175 119.917C304.422 110.767 308.374 106.786 311.077 106.786C314.316 106.786 316.663 110.381 316.663 115.936C316.663 117.184 316.484 118.462 316.306 119.888C316.306 120.779 316.128 121.522 316.128 122.413C316.128 132.663 321.862 140.922 327.804 140.922C329.586 140.922 331.399 140.209 333.181 138.397C338.38 134.445 337.311 128.86 338.588 118.283C338.588 107.677 339.836 105.36 345.065 102.656" fill="#DEF1F1"/>
<path d="M54.8039 289.41C54.8039 294.936 53.3184 299.243 50.1692 302.601C47.0497 305.898 43.2172 307.532 38.4637 307.562C33.8587 307.562 30.0856 305.958 26.9364 302.601C23.7278 299.214 22.1829 294.965 22.1532 289.588C22.1532 284.27 23.6387 280.051 26.7582 276.724C29.8183 273.426 33.5914 271.792 38.2854 271.792C43.0984 271.792 46.9606 273.337 50.1098 276.575C53.259 279.843 54.8039 284.032 54.8336 289.439M73.5505 226.039L56.2596 226.099C54.9227 226.099 53.8235 227.198 53.8532 228.535L53.9423 257.353C51.8329 255.779 49.6047 254.471 47.2577 253.491C43.3361 251.827 39.0876 250.966 34.6609 250.995C25.035 251.025 16.7461 254.739 10.0318 262.047C3.37688 269.296 0.0197254 278.655 0.0791442 289.855C0.108854 300.699 3.64427 309.909 10.5666 317.218C17.5186 324.556 25.8966 328.269 35.4631 328.24C39.7412 328.24 43.752 327.438 47.4359 325.893C49.6939 324.942 51.9518 323.605 54.2097 321.941V323.991C54.2097 325.328 55.3089 326.428 56.6459 326.428L73.907 326.368C75.2439 326.368 76.3432 325.269 76.3432 323.932L76.0164 228.505C76.0164 227.168 74.9171 226.069 73.5802 226.069" fill="#FCE4DF"/>
<path d="M125.067 252.689C118.412 249.51 112.113 250.312 106.914 253.818C105.993 254.442 105.132 255.155 104.3 255.927V254.947C104.3 253.61 103.2 252.511 101.864 252.54L87.0683 252.6C85.7313 252.6 84.6321 253.699 84.6321 255.036L84.8698 323.873C84.8698 325.21 85.969 326.309 87.3059 326.309L104.448 326.249C105.785 326.249 106.884 325.15 106.884 323.813L106.795 295.916L106.706 292.618C106.676 281.21 107.984 276.427 109.083 274.436C111.133 270.752 113.064 270.722 113.688 270.722C114.312 270.722 115.5 270.93 117.61 271.97C118.233 272.297 118.946 272.327 119.6 272.059C120.254 271.792 120.759 271.287 120.967 270.633L126.285 255.749C126.701 254.561 126.166 253.283 125.037 252.748" fill="#FCE4DF"/>
<path d="M150.854 278.179C152.072 276.1 153.349 274.585 154.627 273.634C157.865 271.227 161.519 270.039 165.827 270.009C169.779 270.009 173.136 271.019 176.107 273.129C178.067 274.525 179.583 276.159 180.652 278.061L150.824 278.179H150.854ZM164.936 250.55C154.092 250.579 144.941 254.382 137.752 261.78C130.592 269.177 126.967 278.566 126.997 289.677C127.027 300.551 130.74 309.731 137.989 316.95C145.239 324.17 154.716 327.824 166.124 327.794C173.433 327.794 179.85 326.427 185.198 323.783C190.605 321.139 195.269 317.01 199.102 311.543C199.518 310.949 199.637 310.206 199.458 309.523C199.28 308.84 198.775 308.245 198.151 307.948L183.564 301.175C182.643 300.759 181.573 300.937 180.83 301.65C176.641 305.75 171.769 307.77 165.916 307.8C161.074 307.8 157.211 306.611 154.122 304.056C151.775 302.125 150.141 299.689 149.19 296.688L201.627 296.51C202.934 296.51 204.033 295.441 204.063 294.104L204.123 290.776C204.093 278.774 200.379 268.97 193.13 261.631C185.851 254.263 176.374 250.55 164.906 250.579" fill="#FCE4DF"/>
<path d="M264.76 288.697C264.76 294.223 263.245 298.53 260.096 301.888C256.976 305.185 253.144 306.819 248.39 306.819C243.785 306.819 240.012 305.215 236.863 301.858C233.654 298.471 232.11 294.223 232.08 288.845C232.08 283.527 233.565 279.308 236.685 275.981C239.745 272.683 243.518 271.079 248.212 271.049C253.025 271.049 256.887 272.594 260.036 275.832C263.186 279.101 264.73 283.29 264.76 288.697ZM283.596 251.887L266.305 251.946C264.968 251.946 263.869 253.045 263.869 254.382V256.611C261.76 255.036 259.531 253.729 257.214 252.748C253.292 251.085 249.044 250.223 244.617 250.253C234.991 250.282 226.702 253.996 219.988 261.305C213.333 268.554 209.976 277.912 210.035 289.113C210.065 299.957 213.601 309.166 220.523 316.475C227.475 323.813 235.853 327.527 245.419 327.497C249.697 327.497 253.708 326.695 257.363 325.15C259.62 324.199 261.878 322.862 264.136 321.199V323.249C264.136 324.586 265.236 325.685 266.572 325.655L283.863 325.596C285.2 325.596 286.299 324.496 286.299 323.16L286.062 254.323C286.062 252.986 284.963 251.887 283.626 251.887" fill="#FCE4DF"/>
<path d="M397.234 253.521C393.134 251.025 388.351 249.777 383.033 249.807C377.923 249.807 373.14 250.996 368.832 253.313C365.564 255.066 362.623 257.442 360.127 260.413C358.107 257.502 355.641 255.155 352.789 253.432C348.957 251.114 344.589 249.926 339.865 249.956C335.29 249.956 330.982 250.877 327.061 252.6C324.803 253.61 322.664 254.917 320.643 256.522V254.204C320.643 252.867 319.544 251.768 318.207 251.798L300.916 251.857C299.579 251.857 298.48 252.956 298.48 254.293L298.718 323.13C298.718 324.467 299.817 325.566 301.154 325.536L318.415 325.477C319.752 325.477 320.851 324.378 320.851 323.041L320.733 292.41C320.733 286.112 321.238 281.507 322.277 278.714C323.288 276.07 324.714 274.05 326.674 272.624C328.606 271.198 330.715 270.515 333.062 270.515C335.112 270.515 336.805 271.02 338.202 272.059C339.598 273.099 340.697 274.763 341.44 277.021C342.272 279.517 342.688 283.765 342.718 289.647L342.836 323.011C342.836 324.348 343.936 325.447 345.273 325.447L362.682 325.388C364.019 325.388 365.118 324.289 365.089 322.952L364.97 291.876C364.97 285.637 365.445 281.091 366.485 278.417C367.436 275.862 368.862 273.931 370.823 272.505C372.754 271.109 374.893 270.425 377.329 270.396C380.389 270.396 382.617 271.406 384.073 273.486C385.202 275.09 386.569 278.893 386.598 287.924L386.717 322.863C386.717 324.199 387.816 325.299 389.153 325.299L406.563 325.239C407.9 325.239 408.999 324.14 408.999 322.803L408.851 282.428C408.821 273.723 407.93 267.544 406.147 263.533C404.305 259.433 401.275 256.076 397.145 253.551" fill="#FCE4DF"/>
<path d="M441.175 277.169C442.393 275.119 443.67 273.575 444.948 272.624C448.186 270.217 451.84 269.029 456.148 268.999C460.099 268.999 463.457 270.01 466.427 272.119C468.388 273.515 469.903 275.149 470.973 277.051L441.145 277.169H441.175ZM455.257 249.54C444.413 249.569 435.262 253.372 428.073 260.77C420.913 268.167 417.288 277.556 417.318 288.667C417.348 299.541 421.061 308.721 428.31 315.94C435.559 323.16 445.037 326.814 456.445 326.784C463.754 326.784 470.171 325.418 475.519 322.773C480.926 320.129 485.59 316 489.423 310.533C489.838 309.939 489.957 309.196 489.779 308.513C489.601 307.83 489.096 307.235 488.442 306.938L473.855 300.165C472.934 299.749 471.864 299.927 471.122 300.64C466.933 304.74 462.06 306.76 456.207 306.79C451.365 306.79 447.503 305.601 444.413 303.046C442.066 301.115 440.432 298.679 439.481 295.678L491.918 295.5C493.255 295.5 494.325 294.431 494.354 293.094L494.414 289.766C494.384 277.764 490.67 267.96 483.421 260.621C476.172 253.253 466.665 249.54 455.197 249.569" fill="#FCE4DF"/>
<path d="M539.78 251.263C533.125 248.084 526.827 248.886 521.628 252.392C520.707 253.016 519.845 253.729 519.013 254.501V253.521C519.013 252.184 517.914 251.085 516.577 251.114L501.752 251.174C500.415 251.174 499.316 252.273 499.346 253.61L499.584 322.447C499.584 323.784 500.683 324.883 502.02 324.883L519.162 324.823C520.499 324.823 521.598 323.724 521.598 322.387L521.509 294.49L521.45 291.192C521.42 279.784 522.727 275.001 523.826 273.01C525.876 269.326 527.807 269.296 528.431 269.296C529.055 269.296 530.244 269.504 532.353 270.544C532.977 270.871 533.69 270.871 534.343 270.633C534.997 270.366 535.502 269.861 535.71 269.207L541.028 254.323C541.444 253.135 540.909 251.857 539.78 251.322" fill="#FCE4DF"/>
<path d="M589.038 288.994C586.275 285.221 581.492 281.715 574.391 278.239L568.033 275.09C564.528 273.367 563.726 272.594 563.607 272.475C563.22 272.059 563.191 271.732 563.161 271.524C563.161 271.227 563.22 270.871 563.844 270.396C564.498 269.89 565.538 269.653 566.934 269.623C569.786 269.623 573.203 271.524 577.065 275.327C578.016 276.278 579.531 276.248 580.482 275.327L591.147 264.602C592.009 263.741 592.098 262.404 591.355 261.423C588.384 257.472 584.7 254.412 580.422 252.303C576.144 250.193 571.539 249.124 566.697 249.153C559.566 249.153 553.595 251.352 548.96 255.66C544.266 259.997 541.919 265.286 541.949 271.435C541.978 280.824 548.069 288.637 560.071 294.609L565.894 297.491C569.846 299.451 572.104 301.501 572.104 303.076C572.104 303.343 572.104 304.056 570.945 304.977C569.073 306.463 565.568 306.76 560.844 304.235C558.408 302.927 556.239 301.204 554.397 299.095C553.951 298.56 553.298 298.263 552.585 298.263C551.931 298.263 551.218 298.53 550.743 299.065L540.136 310.681C539.334 311.543 539.275 312.88 540.017 313.801C546.494 322.209 555.258 326.487 566.043 326.427C574.183 326.427 580.808 324.11 585.711 319.594C590.702 315.019 593.197 309.255 593.168 302.452C593.168 297.342 591.712 292.826 588.919 289.023" fill="#FCE4DF"/>
<path d="M81.3934 382.044C78.9869 382.044 76.5507 381.212 74.6196 379.489L76.6993 376.993C78.1253 378.182 79.6405 378.924 81.4528 378.924C82.8788 378.924 83.7404 378.36 83.7404 377.409V377.35C83.7404 376.458 83.2056 376.013 80.5318 375.33C77.3232 374.498 75.2435 373.606 75.2435 370.457C75.2435 367.516 77.5608 365.615 80.8289 365.615C83.1462 365.615 85.1367 366.357 86.741 367.635L84.9288 370.279C83.5027 369.299 82.1361 368.704 80.7695 368.704C79.4028 368.704 78.7195 369.328 78.7195 370.101C78.7195 371.2 79.4028 371.527 82.1658 372.24C85.4041 373.072 87.2164 374.23 87.2164 377.023V377.082C87.2164 380.261 84.8099 382.014 81.3637 382.014" fill="white"/>
<path d="M100.794 381.836V365.882H104.299V378.627H112.262V381.836H100.794Z" fill="white"/>
<path d="M125.393 381.836V365.882H137.425V369.001H128.869V372.24H136.386V375.359H128.869V378.716H137.544V381.836H125.393Z" fill="white"/>
<path d="M151.151 381.836V365.882H163.183V369.001H154.657V372.24H162.173V375.359H154.657V378.716H163.302V381.836H151.151Z" fill="white"/>
<path d="M186 371.467C186 369.893 184.901 369.061 183.148 369.061H180.445V373.933H183.208C184.961 373.933 186 372.893 186 371.527V371.467ZM183.089 377.053H180.415V381.836H176.909V365.882H183.416C187.219 365.882 189.536 368.14 189.536 371.408V371.467C189.536 375.151 186.654 377.082 183.089 377.082" fill="white"/>
<path d="M226.999 369.982L224.89 375.151H229.138L227.029 369.982H226.999ZM231.842 381.836L230.386 378.27H223.642L222.186 381.836H218.621L225.454 365.763H228.692L235.526 381.836H231.842Z" fill="white"/>
<path d="M259.65 381.836L251.925 371.675V381.836H248.479V365.882H251.717L259.174 375.686V365.882H262.65V381.836H259.65Z" fill="white"/>
<path d="M287.993 373.844C287.993 371.022 286.062 369.031 283.18 369.031H280.476V378.657H283.18C286.062 378.657 287.993 376.726 287.993 373.903V373.844ZM283.18 381.836H276.971V365.882H283.18C288.201 365.882 291.647 369.328 291.647 373.814V373.874C291.647 378.36 288.201 381.836 283.18 381.836Z" fill="white"/>
<path d="M332.675 376.963C332.675 375.894 331.873 375.24 330.091 375.24H326.02V378.746H330.18C331.725 378.746 332.675 378.211 332.675 377.023V376.963ZM331.784 370.576C331.784 369.536 330.952 368.942 329.467 368.942H325.991V372.329H329.229C330.774 372.329 331.754 371.824 331.754 370.635V370.576H331.784ZM330.209 381.836H322.634V365.882H330.031C333.299 365.882 335.29 367.486 335.29 370.011V370.071C335.29 371.883 334.339 372.864 333.18 373.517C335.022 374.23 336.151 375.3 336.151 377.439V377.498C336.151 380.41 333.775 381.866 330.18 381.866" fill="white"/>
<path d="M349.551 381.836V365.882H361.583V369.001H353.056V372.24H360.573V375.359H353.056V378.716H361.702V381.836H349.551Z" fill="white"/>
<path d="M385.32 381.836V375.419H378.844V381.836H375.338V365.882H378.844V372.18H385.32V365.882H388.826V381.836H385.32Z" fill="white"/>
<path d="M410.188 369.982L408.078 375.151H412.327L410.217 369.982H410.188ZM415 381.836L413.545 378.27H406.801L405.345 381.836H401.78L408.613 365.763H411.851L418.684 381.836H415Z" fill="white"/>
<path d="M437.549 381.955H434.43L427.983 365.882H431.875L436.034 377.112L440.193 365.882H443.996L437.549 381.955Z" fill="white"/>
<path d="M460.604 365.882H457.098V381.836H460.604V365.882Z" fill="white"/>
<path d="M487.67 373.844C487.67 371.111 485.65 368.823 482.827 368.823C480.005 368.823 478.044 371.051 478.044 373.785V373.844C478.044 376.577 480.034 378.865 482.886 378.865C485.739 378.865 487.67 376.637 487.67 373.903V373.844ZM482.857 382.103C477.925 382.103 474.39 378.449 474.39 373.903V373.844C474.39 369.298 477.955 365.585 482.886 365.585C487.818 365.585 491.354 369.269 491.354 373.785V373.844C491.354 378.39 487.789 382.103 482.857 382.103Z" fill="white"/>
<path d="M514.705 371.319C514.705 369.803 513.665 369.031 511.942 369.031H508.466V373.606H512.031C513.725 373.606 514.705 372.685 514.705 371.348V371.289V371.319ZM514.646 381.836L511.229 376.726H508.466V381.836H504.96V365.882H512.269C516.042 365.882 518.27 367.872 518.27 371.14C518.27 373.755 516.874 375.389 514.854 376.132L518.746 381.836H514.646Z" fill="white"/>
</svg>
